<svg xmlns="http://www.w3.org/2000/svg" version="1.1" viewBox="-5.0 -10.0 110 110">
 <path d="m14.07 48.148v-40.207c0-0.64062 0.51953-1.1562 1.1562-1.1562h82.691c0.64062 0 1.1602 0.51562 1.1602 1.1562v68.574c0 0.63672-0.51953 1.1562-1.1602 1.1562h-52c-0.15625 0.36328-0.23828 0.75-0.23828 1.1445 0.007812 0.45703 0.125 0.90625 0.33594 1.3086l0.21875 0.4375c0.32812 0.62891 0.44531 1.3477 0.33203 2.043-0.11328 0.69922-0.44141 1.3438-0.94141 1.8438l-2.6406 2.6406v-0.003906c-0.5 0.50391-1.1445 0.83203-1.8438 0.94531-0.69531 0.10547-1.4102-0.011719-2.0391-0.33203l-0.4375-0.22656-0.003906 0.003906c-0.82031-0.44141-1.8047-0.44531-2.6289-0.015624-0.43359 0.21094-0.87109 0.41406-1.3086 0.59766-0.4375 0.17969-0.88672 0.35156-1.3477 0.50391h-0.003906c-0.43359 0.14062-0.82812 0.38281-1.1484 0.70312-0.31641 0.32812-0.55469 0.72656-0.69531 1.1602l-0.14844 0.46484c-0.44141 1.3828-1.7305 2.3203-3.1836 2.3164h-3.7227c-1.4531 0.007813-2.7461-0.92969-3.1836-2.3164l-0.15234-0.46094c-0.13672-0.4375-0.37109-0.83594-0.69141-1.1641-0.32422-0.32422-0.72266-0.56641-1.1562-0.70703-0.45312-0.15234-0.90234-0.32422-1.3438-0.50391-0.4375-0.17969-0.875-0.38281-1.3086-0.59766-0.82422-0.42969-1.8086-0.42188-2.6328 0.015625l-0.43359 0.22656h0.003907c-0.63281 0.32031-1.3477 0.43359-2.043 0.32812-0.69922-0.10938-1.3477-0.4375-1.8477-0.9375l-2.6328-2.6406c-1.0273-1.0195-1.2773-2.5898-0.61719-3.8828l0.22266-0.4375c0.21484-0.40234 0.33203-0.85156 0.33984-1.3086 0-0.46094-0.10938-0.91016-0.32031-1.3203-0.21094-0.4375-0.41016-0.875-0.58984-1.3086-0.17969-0.43359-0.35547-0.89453-0.50781-1.3477h-0.003906c-0.14062-0.4375-0.38281-0.83203-0.70312-1.1602-0.33203-0.31641-0.73047-0.55469-1.168-0.69141l-0.46484-0.14844c-1.3867-0.44141-2.3242-1.7266-2.3164-3.1797v-3.7305c-0.007813-1.4531 0.92969-2.7383 2.3164-3.1797l0.46484-0.15234c0.4375-0.13281 0.83594-0.37109 1.168-0.6875 0.32031-0.32812 0.55859-0.72266 0.69922-1.1602 0.15234-0.45312 0.32422-0.90234 0.50781-1.3477 0.17969-0.43359 0.37891-0.87109 0.58984-1.3086h0.003906c0.4375-0.82422 0.42969-1.8125-0.015625-2.6289l-0.22266-0.4375h-0.003906c-0.65625-1.293-0.40234-2.8594 0.62109-3.8789l2.6328-2.6406c1.0273-1.0312 2.6016-1.2812 3.8945-0.61328l0.43359 0.22266c0.023437 0.007812 0.042969 0.015625 0.066406 0.027344zm66.918 5.4297c-0.44922 0.45312-1.1836 0.45312-1.6367 0-0.45312-0.45312-0.45312-1.1836 0-1.6367l7.9922-7.9922-7.9922-7.9844c-0.45703-0.45312-0.45703-1.1875-0.003906-1.6445 0.44922-0.45312 1.1875-0.45703 1.6406-0.003906l8.8125 8.8125c0.44922 0.45312 0.44922 1.1836 0 1.6367zm-5.2969-24.395c0.074219-0.30859 0.26562-0.57031 0.53516-0.73047 0.26953-0.16406 0.59375-0.20703 0.89453-0.125 0.30469 0.082031 0.5625 0.28125 0.71094 0.55469 0.15234 0.27734 0.1875 0.60156 0.09375 0.90234l-7.7461 28.93c-0.16797 0.61719-0.80078 0.98438-1.4219 0.82031-0.61719-0.16406-0.98437-0.80078-0.82031-1.418zm-9.1719 22.754c0.45312 0.45312 0.45312 1.1875 0 1.6406s-1.1875 0.45312-1.6367 0l-8.8125-8.8086v0.003907c-0.45312-0.45703-0.45312-1.1875 0-1.6406l8.8125-8.8164c0.45313-0.45312 1.1875-0.45312 1.6406 0.003906 0.44922 0.45313 0.44922 1.1875-0.003907 1.6367l-7.9922 7.9922zm-40.188 1.5078c4.4648-0.003906 8.6797 2.0703 11.398 5.6133 2.7227 3.5391 3.6406 8.1445 2.4883 12.457-1.1562 4.3125-4.25 7.8438-8.3711 9.5547-4.125 1.7109-8.8125 1.4062-12.68-0.82422-3.8672-2.2305-6.4766-6.1328-7.0625-10.559-0.58594-4.4258 0.92188-8.875 4.0781-12.031 2.6875-2.6992 6.3398-4.2148 10.148-4.2109zm8.5117 5.8438c-4.0625-4.0547-10.422-4.6797-15.191-1.4922-4.7734 3.1914-6.625 9.3086-4.4297 14.609 2.1992 5.3047 7.8359 8.3164 13.465 7.1953 5.6289-1.1211 9.6836-6.0625 9.6836-11.801 0.003906-3.1953-1.2656-6.2578-3.5273-8.5117zm12.078 16.066h49.836v-53.156l-80.371-0.003907v26.051c0.082031-0.03125 0.16406-0.070313 0.24609-0.10547 0.4375-0.21094 0.875-0.42188 1.3086-0.59766s0.89453-0.35156 1.3477-0.50391v0.003907c0.4375-0.14453 0.83203-0.38672 1.1602-0.70703 0.31641-0.32813 0.55469-0.73047 0.6875-1.168l0.15234-0.46484h0.003907c0.4375-1.3867 1.7266-2.3242 3.1797-2.3164h3.7305c1.4531-0.007813 2.7422 0.92969 3.1836 2.3164l0.14844 0.46484c0.13672 0.4375 0.375 0.83594 0.69531 1.168 0.32031 0.32031 0.71484 0.5625 1.1484 0.70703 0.46094 0.15234 0.91016 0.32422 1.3477 0.50391s0.875 0.38281 1.3086 0.59766v-0.003906c0.82812 0.43359 1.8125 0.42578 2.6328-0.015625l0.4375-0.22266c1.2891-0.66406 2.8633-0.41797 3.8828 0.61328l2.6406 2.6406c0.5 0.49609 0.83203 1.1406 0.94141 1.8398 0.11328 0.69922 0 1.4141-0.32812 2.043l-0.21875 0.4375c-0.21484 0.40234-0.32813 0.85156-0.33984 1.3086 0.003906 0.45703 0.11328 0.91016 0.31641 1.3203 0.21875 0.4375 0.42188 0.87109 0.59766 1.3086 0.17578 0.4375 0.35156 0.89453 0.50781 1.3477 0.27734 0.88672 0.97656 1.582 1.8711 1.8438l0.46484 0.15234v0.003907c1.3828 0.4375 2.3203 1.7227 2.3125 3.1758v3.7344c0.007813 1.4531-0.92969 2.7383-2.3125 3.1758l-0.46484 0.15234v0.003906c-0.89453 0.26172-1.5977 0.94922-1.875 1.8398l-0.17969 0.50781zm-6.7695-25.395-0.4375 0.22266v0.003906c-1.4727 0.76172-3.2227 0.77344-4.707 0.027344-0.37891-0.1875-0.76562-0.36719-1.1719-0.53125-0.40625-0.16406-0.79297-0.31641-1.1992-0.45312v-0.003907c-1.5742-0.51562-2.8086-1.7617-3.3086-3.3438l-0.14844-0.46484 0.003906-0.003907c-0.13281-0.42578-0.53516-0.71875-0.98438-0.71094h-3.7266c-0.44922-0.011719-0.85156 0.28125-0.98047 0.71094l-0.15234 0.46484v0.003906c-0.49609 1.582-1.7266 2.8281-3.3047 3.3438-0.40625 0.13672-0.80469 0.28906-1.2031 0.45313-0.39844 0.16406-0.79297 0.34375-1.1719 0.53125l-0.003906 0.003906c-1.4766 0.74609-3.2266 0.73438-4.6992-0.027344l-0.4375-0.22266v-0.003906c-0.19141-0.097657-0.41406-0.13672-0.62891-0.10547-0.21875 0.039062-0.41406 0.14453-0.56641 0.30469l-2.6406 2.6328v-0.003907c-0.15234 0.15625-0.25781 0.35156-0.30078 0.56641-0.027343 0.21484 0.007813 0.4375 0.10547 0.62891l0.22656 0.43359c0.76172 1.4727 0.77344 3.2227 0.027344 4.707-0.1875 0.37891-0.36719 0.76562-0.53125 1.1719-0.16406 0.40625-0.31641 0.80078-0.45313 1.207l-0.003906-0.003906c-0.25781 0.77734-0.69141 1.4805-1.2695 2.0586-0.58594 0.57031-1.2969 0.99609-2.0742 1.2461l-0.46484 0.14844c-0.42578 0.13281-0.71484 0.53125-0.70703 0.97656v3.7383c-0.007812 0.44531 0.28125 0.84375 0.70703 0.98047l0.46484 0.14844c0.77734 0.24609 1.4883 0.67188 2.0742 1.2422 0.58203 0.57813 1.0156 1.2812 1.2695 2.0586 0.13672 0.40625 0.28906 0.80859 0.45312 1.207 0.16406 0.39453 0.34375 0.79297 0.53125 1.1719h0.003907c0.74609 1.4805 0.73437 3.2305-0.027344 4.7031l-0.22656 0.43359c-0.097656 0.19531-0.13672 0.41406-0.10547 0.63281 0.039063 0.21484 0.14453 0.41406 0.30078 0.56641l2.6406 2.6328c0.15234 0.16016 0.34766 0.26563 0.56641 0.30078 0.21484 0.03125 0.4375-0.003906 0.62891-0.10547l0.4375-0.22266c1.4727-0.76562 3.2227-0.77734 4.6992-0.027344 0.37891 0.1875 0.77344 0.36719 1.1797 0.53125s0.79297 0.31641 1.1992 0.45312c1.5781 0.51562 2.8086 1.7617 3.3047 3.3477l0.15234 0.46484c0.066406 0.20703 0.19141 0.38672 0.36719 0.51953 0.17969 0.125 0.39453 0.19141 0.61328 0.1875h3.7305-0.003906c0.21875 0.003907 0.43359-0.0625 0.60938-0.1875 0.17578-0.12891 0.30469-0.3125 0.375-0.51953l0.14844-0.46484h-0.003906c0.25-0.78125 0.67578-1.4883 1.25-2.0703 0.57812-0.58203 1.2812-1.0195 2.0586-1.2773 0.40625-0.13672 0.80469-0.28906 1.1992-0.45312 0.39453-0.16406 0.79297-0.34375 1.1719-0.53125 1.4844-0.75 3.2344-0.73828 4.707 0.027344l0.4375 0.22266c0.19531 0.10156 0.41406 0.13672 0.63281 0.10547 0.21484-0.035156 0.41406-0.14062 0.5625-0.30078l2.6406-2.6328c0.15625-0.15234 0.26172-0.35156 0.29688-0.56641 0.03125-0.21875-0.003906-0.44141-0.10547-0.63281l-0.21875-0.43359c-0.37891-0.72656-0.57813-1.5352-0.58594-2.3555-0.003906-0.81641 0.1875-1.6211 0.55859-2.3477 0.1875-0.37891 0.35938-0.76562 0.52734-1.1719 0.16406-0.40625 0.31641-0.80078 0.44922-1.207 0.51562-1.5781 1.7617-2.8047 3.3438-3.3008l0.46484-0.14844c0.21094-0.066407 0.39844-0.19531 0.52734-0.375 0.125-0.17578 0.19531-0.38672 0.19141-0.60547v-3.7344c0.003906-0.21875-0.066406-0.42969-0.19141-0.60938-0.12891-0.17578-0.31641-0.30859-0.52734-0.37109l-0.46484-0.14844c-1.582-0.49609-2.8281-1.7266-3.3438-3.3008-0.13672-0.40625-0.28516-0.80859-0.44922-1.207-0.16406-0.39453-0.34375-0.79297-0.52734-1.1719-0.37109-0.72656-0.5625-1.5352-0.55859-2.3516 0.007812-0.82031 0.20703-1.625 0.58594-2.3516l0.21875-0.43359c0.21484-0.39844 0.14062-0.89062-0.1875-1.1992l-2.6406-2.6328c-0.14844-0.16016-0.34766-0.26562-0.5625-0.30078-0.21875-0.035157-0.4375 0.003906-0.63281 0.10156zm50.949-39.551c1.8906 0 3.5195 1.332 3.8906 3.1875 0.37109 1.8555-0.62109 3.7148-2.3672 4.4414-1.75 0.72266-3.7656 0.11328-4.8164-1.4609-1.0508-1.5742-0.84375-3.6719 0.49609-5.0078 0.74219-0.74219 1.7461-1.1602 2.7969-1.1602zm1.1484 2.8008c-0.46875-0.46875-1.168-0.60547-1.7773-0.35156-0.61328 0.25391-1.0078 0.84766-1.0039 1.5078 0 0.54687 0.26953 1.0586 0.72656 1.3594 0.45313 0.30469 1.0273 0.35938 1.5312 0.15234 0.50391-0.21094 0.87109-0.66016 0.97656-1.1953s-0.066406-1.0898-0.45312-1.4727zm-13.836-2.8008c1.8867 0 3.5117 1.332 3.8828 3.1836 0.36719 1.8477-0.62109 3.7031-2.3633 4.4258-1.7422 0.72266-3.7539 0.11328-4.8047-1.457-1.0469-1.5664-0.83984-3.6602 0.49219-4.9922 0.74219-0.74219 1.7461-1.1602 2.793-1.1602zm1.1562 2.8008h0.003907c-0.64062-0.63672-1.6758-0.63281-2.3125 0.003906-0.63672 0.64062-0.63281 1.6758 0.003906 2.3125 0.46875 0.46484 1.1719 0.60547 1.7812 0.35156s1.0039-0.85156 1.0039-1.5117c0-0.43359-0.17188-0.85156-0.47656-1.1562zm-13.836-2.8008c1.8867 0 3.5117 1.332 3.8828 3.1836 0.36719 1.8516-0.62109 3.7031-2.3633 4.4258-1.7461 0.72266-3.7539 0.11328-4.8047-1.457-1.0469-1.5664-0.83984-3.6602 0.49219-4.9922 0.73828-0.74219 1.7461-1.1602 2.793-1.1602zm1.1562 2.8008h0.003906c-0.64062-0.64063-1.6758-0.64063-2.3164 0-0.38672 0.38672-0.55469 0.9375-0.44922 1.4727 0.10938 0.53906 0.47656 0.98438 0.98047 1.1914 0.50391 0.21094 1.0781 0.15234 1.5312-0.14844 0.45703-0.30469 0.72656-0.8125 0.72656-1.3594 0.003906-0.43359-0.16797-0.85156-0.47266-1.1602zm-45.219 2.4375c-0.64062 0-1.1562-0.51953-1.1562-1.1562 0-0.64063 0.51562-1.1602 1.1562-1.1602h33.16c0.63672 0 1.1562 0.51953 1.1562 1.1602 0 0.63672-0.51953 1.1562-1.1562 1.1562zm-5.2852 4.2266h80.371v-10.773h-80.371z"/>
</svg>