<svg xmlns="http://www.w3.org/2000/svg" version="1.1" viewBox="-5.0 -10.0 110 110">
 <path d="m80.629 45h-2.1016c-0.16016 0-0.30078-0.089844-0.33984-0.23047-0.28125-0.85938-0.62891-1.7109-1.0391-2.5195-0.058594-0.12891-0.03125-0.28906 0.078124-0.39844l1.4805-1.4805c0.92188-0.92188 0.92188-2.4297 0-3.3516l-3.7188-3.7188c-0.92188-0.92188-2.4297-0.92969-3.3516 0l-1.4883 1.4883c-0.10938 0.10938-0.28125 0.14063-0.39844 0.078126-0.80078-0.41016-1.6484-0.76953-2.5117-1.0508-0.14844-0.046875-0.23828-0.1875-0.23828-0.34766v-2.1016c0-1.3086-1.0586-2.3711-2.3711-2.3711h-5.2617c-1.3086 0.003906-2.3672 1.0625-2.3672 2.375v2.1016c0 0.16016-0.089844 0.30078-0.23047 0.33984-0.87109 0.28125-1.7188 0.64062-2.5117 1.0508-0.12891 0.058594-0.28906 0.03125-0.39844-0.078125l-1.4883-1.4883c-0.92188-0.92188-2.4297-0.92188-3.3516 0l-3.7188 3.7188c-0.92188 0.92188-0.92188 2.4297 0 3.3516l1.4883 1.4883c0.10938 0.10938 0.14844 0.28125 0.078126 0.39844-0.41016 0.80078-0.76953 1.6406-1.0508 2.5117-0.046875 0.14453-0.1875 0.23438-0.34766 0.23438h-2.1016c-1.3086 0-2.3672 1.0586-2.3672 2.3711v5.2617c0 1.3086 1.0586 2.3711 2.3711 2.3711h2.1016c0.16016 0 0.30078 0.089844 0.33984 0.23047 0.28125 0.87109 0.62891 1.7109 1.0508 2.5117 0.070313 0.12891 0.03125 0.28906-0.078125 0.39844l-1.4883 1.4883c-0.44922 0.44922-0.69922 1.0391-0.69922 1.6797s0.25 1.2305 0.69922 1.6797l3.7188 3.7188c0.92188 0.92187 2.4297 0.92969 3.3516 0l1.4805-1.4805c0.10938-0.10938 0.28125-0.14062 0.39844-0.078125 0.80859 0.41016 1.6602 0.76172 2.5195 1.0391 0.12891 0.039063 0.23047 0.17969 0.23047 0.33984v2.1016c0 1.3086 1.0586 2.3711 2.3711 2.3711h5.2617c1.3086 0 2.3711-1.0586 2.3711-2.3711v-2.1016c0-0.16016 0.089844-0.30078 0.23047-0.33984 0.85938-0.28125 1.7109-0.62891 2.5195-1.0391 0.12891-0.070313 0.28906-0.03125 0.39844 0.078125l1.4805 1.4805c0.92188 0.92187 2.4297 0.92969 3.3516 0l3.7188-3.7188c0.44922-0.44922 0.69922-1.0391 0.69922-1.6797s-0.25-1.2305-0.69922-1.6797l-1.4805-1.4805c-0.10938-0.10938-0.14844-0.28125-0.078125-0.39844 0.41016-0.80859 0.76172-1.6602 1.0391-2.5195 0.039062-0.12891 0.17969-0.23047 0.33984-0.23047h2.1016c1.3086 0 2.3711-1.0586 2.3711-2.3711v-5.2617c0.007812-1.3125-1.0508-2.3711-2.3633-2.3711zm0.37109 7.6289c0 0.21094-0.17188 0.37109-0.37109 0.37109h-2.1016c-1.0312 0-1.9414 0.64844-2.25 1.6094-0.25 0.76172-0.55859 1.5117-0.92188 2.2188-0.46094 0.89844-0.28125 2 0.44922 2.7305l1.4805 1.4805c0.089844 0.089844 0.10938 0.19922 0.10938 0.26172 0 0.058594-0.011719 0.17188-0.10938 0.26172l-3.7188 3.7188c-0.14844 0.14844-0.37891 0.14062-0.53125 0l-1.4805-1.4805c-0.73047-0.73047-1.8281-0.91016-2.7305-0.44922-0.71094 0.35938-1.4609 0.67188-2.2188 0.92188-0.95703 0.31641-1.6055 1.2266-1.6055 2.2578v2.1016c0 0.21094-0.17188 0.37109-0.37109 0.37109h-5.2617c-0.19531-0.003906-0.36719-0.17578-0.36719-0.375v-2.1016c0-1.0312-0.64844-1.9414-1.6094-2.25-0.76172-0.25-1.5117-0.55859-2.2188-0.92188-0.32812-0.17188-0.69141-0.25-1.0508-0.25-0.60938 0-1.2188 0.23828-1.6797 0.69922l-1.4805 1.4805c-0.14063 0.14062-0.37891 0.14844-0.53125 0l-3.7188-3.7188c-0.089844-0.089844-0.10938-0.21094-0.10938-0.26172 0-0.050782 0.011719-0.17188 0.10938-0.26172l1.4883-1.4883c0.73047-0.73047 0.91016-1.8281 0.44141-2.7383-0.35938-0.69922-0.67188-1.4492-0.92188-2.2109-0.30859-0.95703-1.2188-1.6055-2.25-1.6055h-2.1016c-0.19531 0-0.36719-0.17188-0.36719-0.37109v-5.2617c0-0.21094 0.17188-0.37109 0.37109-0.37109h2.1016c1.0312 0 1.9297-0.64844 2.2383-1.6094 0.25-0.76953 0.55859-1.5117 0.92187-2.2109 0.46875-0.89844 0.28906-2-0.44141-2.7305l-1.4883-1.4883c-0.14062-0.14844-0.14062-0.37891 0-0.53125l3.7188-3.7188c0.14844-0.14062 0.37891-0.14844 0.53125 0l1.4883 1.4883c0.73047 0.73047 1.8281 0.91016 2.7383 0.44141 0.69922-0.35938 1.4492-0.67188 2.2109-0.92188 0.96094-0.30469 1.6094-1.2148 1.6094-2.2461v-2.1016c0-0.21094 0.17188-0.37109 0.37109-0.37109h5.2617c0.21094 0 0.37109 0.17188 0.37109 0.37109v2.1016c0 1.0312 0.64844 1.9297 1.6094 2.2383 0.76172 0.25 1.5117 0.55859 2.2109 0.92188 0.91016 0.46875 2 0.28906 2.7383-0.44141l1.4883-1.4883c0.14844-0.14062 0.37891-0.14062 0.53125 0l3.7188 3.7188c0.14062 0.14844 0.14062 0.37891 0 0.53125l-1.4805 1.4805c-0.73047 0.73047-0.91016 1.8281-0.44922 2.7305 0.35938 0.71094 0.67188 1.4609 0.92188 2.2188 0.29688 0.97266 1.207 1.6211 2.2383 1.6211h2.1016c0.21094 0 0.37109 0.17188 0.37109 0.37109zm-19-11.629c-4.9609 0-9 4.0391-9 9s4.0391 9 9 9 9-4.0391 9-9-4.0391-9-9-9zm0 16c-3.8594 0-7-3.1406-7-7s3.1406-7 7-7 7 3.1406 7 7-3.1406 7-7 7zm0 18c-0.55078 0-1 0.44922-1 1v7.8984c0 2.8086-2.2891 5.1016-5.1016 5.1016h-31.797c-2.8086 0-5.1016-2.2891-5.1016-5.1016v-67.797c0-2.8086 2.2891-5.1016 5.1016-5.1016h4.8984v2.0508c0 2.1797 1.7695 3.9492 3.9492 3.9492h14.109c2.1797 0 3.9492-1.7695 3.9492-3.9492l0.003907-2.0508h4.8984c2.8086 0 5.1016 2.2891 5.1016 5.1016v7.8984c0 0.55078 0.44922 1 1 1s1-0.44922 1-1v-7.8984c0-3.9219-3.1914-7.1016-7.1016-7.1016h-31.809c-3.9219 0-7.1016 3.1914-7.1016 7.1016v67.801c0 3.9219 3.1914 7.1016 7.1016 7.1016h31.801c3.9219 0 7.1016-3.1914 7.1016-7.1016l-0.003906-7.9023c0-0.55078-0.44922-1-1-1zm-13-64v2.0508c0 1.0703-0.87109 1.9492-1.9492 1.9492h-14.102c-1.0781 0-1.9492-0.87109-1.9492-1.9492v-2.0508zm-17 72h16c0.55078 0 1 0.44922 1 1s-0.44922 1-1 1h-16c-0.55078 0-1-0.44922-1-1s0.44922-1 1-1zm2.7109-40.289-7.3008 7.2891 7.2891 7.2891c0.39062 0.39063 0.39062 1.0195 0 1.4102-0.1875 0.19922-0.4375 0.30078-0.69922 0.30078s-0.51172-0.10156-0.71094-0.28906l-8-8c-0.39062-0.39063-0.39062-1.0195 0-1.4102l8-8c0.39063-0.39062 1.0195-0.39062 1.4102 0s0.40234 1.0195 0.011719 1.4102z"/>
</svg>