<svg xmlns="http://www.w3.org/2000/svg" version="1.1" viewBox="-5.0 -10.0 110.0 110">
 <path d="m84.871 62.598h-32.555c-0.78516 0.003906-1.418 0.63672-1.4219 1.4219v22.074c0 0.78125 0.63672 1.418 1.4219 1.418h19.066c0.27344 0 0.53906 0.10156 0.74219 0.28906l8.168 6.1445-0.30078-5.2617 0.003906-0.003906c-0.015625-0.29297 0.085937-0.58203 0.28125-0.80078 0.19531-0.21875 0.46875-0.34766 0.76562-0.36328h3.832-0.003906c0.78516-0.003906 1.418-0.63672 1.4219-1.4219v-22.074c-0.003907-0.78125-0.63672-1.418-1.4219-1.4219zm-58.785-0.73828v0.003906c4.2969 0 7.9922 3.0352 8.832 7.25 0.83594 4.2148-1.418 8.4336-5.3867 10.074-3.9688 1.6445-8.5469 0.25781-10.938-3.3164-2.3867-3.5703-1.918-8.332 1.1211-11.371 1.6875-1.6914 3.9805-2.6406 6.3711-2.6367zm4.8008 4.2109-0.003907 0.003907c-2.2891-2.293-5.8789-2.6484-8.5703-0.84766-2.6953 1.7969-3.7422 5.25-2.5039 8.2422 1.2383 2.9922 4.4219 4.6953 7.5977 4.0625s5.4648-3.418 5.4648-6.6602c0.003906-1.8008-0.71094-3.5273-1.9883-4.7969zm-3.0977-9.3984-0.42187-2.5312h-2.5586l-0.43359 2.5625c-0.074219 0.45703-0.42969 0.82031-0.88281 0.90625-1.7695 0.34375-3.4492 1.0391-4.9414 2.0508-0.40625 0.26953-0.94141 0.25-1.3203-0.058594l-2.0742-1.4648-1.8086 1.8086 1.5078 2.1211c0.26562 0.375 0.27344 0.87891 0.015625 1.2617-1.0117 1.4961-1.7109 3.1797-2.0508 4.9492-0.089843 0.46484-0.46875 0.82422-0.9375 0.89062l-2.5273 0.42969v2.5508l2.5625 0.43359c0.45703 0.078125 0.82031 0.42969 0.90625 0.88672 0.33984 1.7695 1.0391 3.4531 2.0508 4.9453 0.26953 0.40625 0.24609 0.9375-0.058594 1.3164l-1.4648 2.0586 1.8086 1.8086 2.1211-1.5078v0.003906c0.37891-0.26953 0.88281-0.27734 1.2656-0.015625 1.4922 1.0078 3.1758 1.707 4.9453 2.0469 0.46875 0.089844 0.82812 0.46875 0.89062 0.9375l0.42969 2.5273h2.5547l0.43359-2.5625h0.003907c0.074218-0.45703 0.42578-0.82031 0.88281-0.90625 1.7695-0.33984 3.4531-1.0391 4.9453-2.0469 0.40625-0.27344 0.94141-0.25 1.3203 0.054687l2.0664 1.4648 1.7969-1.8047-1.5039-2.1211c-0.26953-0.375-0.27734-0.88281-0.015625-1.2656 1.0117-1.4922 1.707-3.1758 2.0508-4.9453 0.089844-0.46875 0.46484-0.82422 0.9375-0.89062l2.5273-0.42969-0.003906-2.5469-2.5586-0.43359c-0.45703-0.074219-0.82031-0.42969-0.90625-0.88281-0.34375-1.7695-1.0391-3.4492-2.0508-4.9414-0.26953-0.40625-0.24609-0.9375 0.058593-1.3164l1.4648-2.0664-1.8086-1.8086-2.1211 1.5c-0.375 0.26953-0.87891 0.27734-1.2617 0.015625-1.4922-1.0078-3.1758-1.7031-4.9414-2.0469-0.46875-0.089844-0.82812-0.46875-0.89062-0.9375zm1.668-3.4219c-0.12891-0.76562-0.78906-1.3242-1.5625-1.3281h-3.6172c-0.77734 0-1.4375 0.5625-1.5664 1.3281l-0.39453 2.3516c-0.62109 0.15234-1.2305 0.34375-1.8242 0.57031v-7.9062h23.547c2.0664-0.003906 3.7422-1.6797 3.7461-3.75v-23c-0.003906-2.0703-1.6797-3.7461-3.7461-3.75h-23.555v-10.781c0.003906-1.1758 0.95703-2.125 2.1328-2.1289h49.629c1.1758 0.003906 2.1289 0.95312 2.1328 2.1289v4.6758c-0.625 0.71484-1.0078 1.6133-1.0859 2.5625-1.4688 2.6719-3.207 5.1875-5.1836 7.5117-2.0039 2.3594-4.2422 4.5039-6.6836 6.4023l-6.2617 3.6133-0.0625 0.03125v0.003906c-3.207 1.8555-4.3242 5.9453-2.5117 9.1758 0.011718 0.023437 0.023437 0.046874 0.035156 0.070312l2.1445 3.707c1.5 2.582 4.5117 3.8828 7.4219 3.1992l5.7891 10.027c0.011719 0.019531 0.019531 0.042968 0.03125 0.0625v-0.003906c0.78516 1.3594 2.5078 1.8477 3.8906 1.1055 0.027344-0.011718 0.054687-0.027344 0.078125-0.042968 1.3867-0.80469 1.8594-2.5781 1.0586-3.9648l-5.6836-9.8398 2.9883-1.7266c1.3242-0.53516 2.668-1.0078 4.0312-1.418v18.242h-22.059c-2.0117 0.003906-3.6406 1.6328-3.6445 3.6406v15.672h-8.6328l-0.49219-0.69141 0.003906-0.003906c0.81641-1.3516 1.4219-2.8203 1.8047-4.3516l2.3516-0.39844c0.76562-0.12891 1.3242-0.79297 1.3281-1.5664v-3.6211c-0.003906-0.77344-0.5625-1.4375-1.3281-1.5664l-2.3516-0.39844c-0.38281-1.5352-0.98828-3.0039-1.8047-4.3555l1.3828-1.9453-0.003906-0.003907c0.45703-0.62891 0.38281-1.4961-0.16797-2.043l-2.5586-2.5586c-0.035156-0.035156-0.070313-0.066406-0.10547-0.09375-0.55078-0.46484-1.3477-0.49609-1.9375-0.074219l-1.9492 1.3828c-0.67969-0.40625-1.3828-0.76172-2.1133-1.0664-0.73047-0.30078-1.4766-0.54688-2.2422-0.73438zm11.77 28.66h7.4492v4.1836h-0.003906c0.003906 2.0078 1.6328 3.6367 3.6445 3.6406h18.703l3.3594 2.5273v0.58594h-51.762c-1.1758-0.003906-2.1289-0.95703-2.1328-2.1328v-5.1484c0.59766 0.22656 1.207 0.41797 1.8281 0.57031l0.39844 2.3516c0.12891 0.76562 0.78906 1.3281 1.5664 1.3281h3.6172c0.77734 0 1.4375-0.5625 1.5664-1.3281l0.39844-2.3516c0.76172-0.1875 1.5117-0.43359 2.2383-0.73828 0.73047-0.30078 1.4375-0.65625 2.1133-1.0664l1.9453 1.3828c0.62891 0.45312 1.4961 0.37891 2.0391-0.16797l2.5586-2.5586c0.26953-0.26562 0.42969-0.61719 0.46094-0.99219 0-0.027344 0-0.054688 0.003906-0.085938zm-22.961 2.6055c-0.10547-0.058594-0.21094-0.12109-0.30859-0.17969l-1.9492 1.3828v-0.003906c-0.62891 0.45312-1.4961 0.38281-2.043-0.16797l-2.5586-2.5586c-0.54688-0.54688-0.61719-1.4102-0.16797-2.0391l1.3828-1.9453c-0.41016-0.67969-0.76562-1.3867-1.0664-2.1172-0.30469-0.72656-0.55078-1.4766-0.73828-2.2383l-2.3516-0.39844c-0.76562-0.13281-1.3281-0.79688-1.3281-1.5703v-3.6211c0-0.77344 0.5625-1.4375 1.3281-1.5664l2.3516-0.39844c0.1875-0.76172 0.43359-1.5117 0.73828-2.2383 0.30078-0.73438 0.65625-1.4414 1.0664-2.1172l-1.3828-1.9453v-0.003907c-0.45312-0.62891-0.38281-1.4961 0.16797-2.043l2.5586-2.5586c0.54688-0.55078 1.4141-0.62109 2.043-0.16797l1.9492 1.3828c0.10547-0.0625 0.20312-0.12109 0.30859-0.17969v-8.957h-8.1562c-2.0664-0.003906-3.7422-1.6797-3.7461-3.75v-23c0.003907-2.0703 1.6797-3.7461 3.7461-3.75h8.1562v-10.781c0.003906-2.4023 1.9492-4.3477 4.3516-4.3516h49.629c2.4023 0 4.3516 1.9492 4.3555 4.3516v3.7695c1.5234 0.007813 3.3594 0.95312 5.2617 2.625v0.003906c2.832 2.6367 5.2305 5.7031 7.1172 9.0859 0.019531 0.035156 0.039062 0.070312 0.054687 0.10547 1.9766 3.3086 3.4258 6.9062 4.293 10.664 0.68359 3.4258 0.23828 6.043-1.4922 7.043v-0.003906c-1.1133 0.55078-2.418 0.53516-3.5156-0.035156-3.0508-0.0625-6.1016 0.17969-9.1016 0.73047-0.87891 0.16016-1.75 0.34766-2.6211 0.55859v18.844h8.2734-0.003906c2.0117 0.003906 3.6406 1.6328 3.6406 3.6406v22.078c0 2.0078-1.6289 3.6367-3.6406 3.6406h-2.5938l0.36719 6.4648c0.027344 0.42969-0.19922 0.83594-0.57812 1.0391-0.38281 0.20312-0.84375 0.16797-1.1875-0.089843l-4.2734-3.2188v0.027343c-0.003906 0.61328-0.5 1.1094-1.1133 1.1133h-52.871c-2.4023-0.003906-4.3477-1.9531-4.3516-4.3555zm38.828-1.6133c-0.30078 0.007812-0.59375-0.10547-0.80859-0.3125-0.21484-0.21094-0.33594-0.5-0.33594-0.79688 0-0.30078 0.12109-0.58984 0.33594-0.80078 0.21484-0.20703 0.50781-0.32031 0.80859-0.3125h23.004c0.60156 0.019531 1.0781 0.51172 1.0781 1.1133 0 0.59766-0.47656 1.0898-1.0781 1.1094zm0-13.473v-0.003907c-0.30078 0.011719-0.59375-0.10156-0.80859-0.3125-0.21484-0.20703-0.33594-0.49609-0.33594-0.79688 0-0.30078 0.12109-0.58594 0.33594-0.79688 0.21484-0.20703 0.50781-0.32031 0.80859-0.3125h11.504c0.59766 0.019531 1.0742 0.51172 1.0742 1.1094 0 0.60156-0.47656 1.0938-1.0742 1.1094zm0 6.7383v-0.003907c-0.30078 0.007813-0.59375-0.10156-0.80859-0.3125-0.21484-0.21094-0.33594-0.49609-0.33594-0.79687 0-0.30078 0.12109-0.58984 0.33594-0.79688 0.21484-0.21094 0.50781-0.32422 0.80859-0.3125h23.004c0.60156 0.015626 1.0781 0.50781 1.0781 1.1094 0 0.59766-0.47656 1.0898-1.0781 1.1094zm-23.445-35.473v0.69141l-22.223-0.003907c-0.61328 0-1.1094 0.49609-1.1094 1.1094 0 0.61328 0.49609 1.1094 1.1094 1.1094h22.223v0.69141c-0.011719 0.30078 0.10156 0.58984 0.3125 0.80859 0.20703 0.21484 0.49609 0.33594 0.79687 0.33594 0.30078 0 0.58594-0.12109 0.79688-0.33594 0.21094-0.21875 0.32031-0.50781 0.3125-0.80859v-0.69141h6.8516c0.61328 0 1.1094-0.49609 1.1094-1.1094 0-0.61328-0.49609-1.1094-1.1094-1.1094h-6.8516v-0.69141c-0.019532-0.60156-0.51172-1.0781-1.1094-1.0781-0.60156 0-1.0938 0.47656-1.1094 1.0781zm10.387-20.711-33.926-0.003906c-0.83984 0-1.5234 0.68359-1.5273 1.5273v23.008c0.003907 0.84375 0.6875 1.5273 1.5273 1.5273h33.926c0.83984 0 1.5234-0.68359 1.5273-1.5273v-23c-0.003906-0.84375-0.6875-1.5273-1.5273-1.5312zm-9.9492 13.184 0.0625-0.03125v-0.007813c0.4375-0.24609 0.80078-0.60938 1.0508-1.043 0.49609-0.85938 0.51172-1.918 0.042969-2.793-0.011719-0.027344-0.027344-0.050781-0.042969-0.078125-0.25-0.43359-0.61328-0.79297-1.0508-1.043l-11.227-6.4766-0.058594-0.035156h0.003907c-1.3438-0.76953-3.0547-0.34375-3.875 0.96875-0.015626 0.023438-0.03125 0.050782-0.046876 0.074219-0.25391 0.4375-0.38672 0.93359-0.38281 1.4375v13.031c0 0.50391 0.13281 1 0.38672 1.4336 0.375 0.66406 1.0039 1.1484 1.7383 1.3438 0.73828 0.19922 1.5234 0.089843 2.1797-0.29688l11.223-6.4805zm-12.328 4.5664 11.223-6.4805c0.019531-0.011718 0.039062-0.023437 0.058593-0.03125 0.10156-0.058594 0.18359-0.14062 0.24219-0.23828 0.054688-0.10156 0.082031-0.21484 0.078125-0.32812 0.003906-0.10547-0.019531-0.20703-0.058594-0.30078l-0.019531-0.03125v0.003906c-0.058594-0.10156-0.14453-0.17969-0.24609-0.23828l-11.219-6.4805c-0.019531-0.011719-0.042968-0.019531-0.0625-0.03125-0.19922-0.12109-0.44922-0.12109-0.64844 0-0.089844 0.046875-0.16797 0.11719-0.22656 0.19922l-0.019531 0.035156v0.003906c-0.054687 0.097656-0.082031 0.21094-0.078125 0.32422v13.031c-0.003906 0.11328 0.023438 0.22656 0.078125 0.32422 0.089844 0.15234 0.23047 0.26172 0.39844 0.30469 0.16797 0.042969 0.34766 0.019531 0.49609-0.070312zm59.941-12.02 0.84375-0.48438 0.035156-0.023438h-0.003906c0.19531-0.09375 0.41406-0.11719 0.62109-0.058593 0.22266 0.058593 0.41406 0.20312 0.52734 0.40234l0.019532 0.035157h0.003906c0.20312 0.41406 0.054687 0.91406-0.34375 1.1484-0.019532 0.011719-0.039063 0.023437-0.054688 0.035156l-0.77734 0.44922c-0.26562 0.14062-0.45703 0.38281-0.53906 0.67188-0.082031 0.28516-0.046875 0.59375 0.10547 0.85156 0.14844 0.25781 0.39453 0.44922 0.68359 0.51953 0.28906 0.074219 0.59375 0.027343 0.85156-0.12891l0.78125-0.44922 0.0625-0.035156v0.003906c1.4414-0.83594 1.9609-2.668 1.168-4.1367-0.011719-0.027344-0.027344-0.050781-0.042969-0.078125l0.003906 0.003906c-0.83594-1.4453-2.668-1.9609-4.1367-1.168-0.027343 0.011718-0.050781 0.027343-0.078124 0.042968l-0.84375 0.48438 0.003906-0.003906c-0.52734 0.30859-0.71094 0.98438-0.40234 1.5156 0.30469 0.52734 0.98438 0.70703 1.5117 0.40234zm3.3242 12.363-0.03125-0.027344c-2.8242-2.6289-5.2188-5.6836-7.0977-9.0508-0.035156-0.050781-0.066406-0.10547-0.089843-0.16016-1.9727-3.3047-3.4141-6.8945-4.2812-10.641l-0.007813-0.039063c-1.125 1.75-2.3672 3.4219-3.7148 5.0078-1.9062 2.2383-4.0117 4.2969-6.2969 6.1484l6.8438 11.855c4.6953-1.8008 9.6484-2.8477 14.672-3.0938zm6.1328-4.4062c-0.81641-3.5234-2.1758-6.8984-4.0312-10l-0.019531-0.035156-0.019531-0.03125c-1.7656-3.1797-4.0195-6.0664-6.6797-8.5547-1.8867-1.6562-3.4609-2.4453-4.2773-1.9766-0.8125 0.46875-0.91406 2.2266-0.42188 4.6914v0.003906c0.82031 3.5234 2.1836 6.8984 4.0391 10.004l0.035156 0.054687v0.003906c1.7656 3.1836 4.0156 6.0703 6.6758 8.5586 1.8867 1.6562 3.4648 2.4453 4.2773 1.9766 0.81641-0.46875 0.91797-2.2266 0.42578-4.6914zm-32.566 5.1094c0.53125-0.30469 1.207-0.12109 1.5117 0.40625 0.30469 0.53125 0.12109 1.207-0.41016 1.5078l-3.5234 2.043 0.48047 0.82812c0.027343 0.039063 0.050781 0.082032 0.074218 0.12891 1.2695 2.1016 3.9727 2.8242 6.1211 1.6328 0.039062-0.027344 0.082031-0.050781 0.12891-0.074219l5.3828-3.1094-6.6953-11.594-5.3945 3.1133-0.054687 0.035157v0.003906c-2.1484 1.25-2.9062 3.9883-1.6992 6.1641l0.03125 0.050781 0.51953 0.89844 3.5273-2.0391zm5.6562 8.2969 5.6484 9.7812c0.011719 0.019531 0.023438 0.035156 0.035157 0.058594 0.09375 0.15625 0.24609 0.26953 0.42187 0.31641 0.16406 0.042969 0.33594 0.027344 0.48828-0.042969l0.03125-0.019531v-0.003906c0.32812-0.19141 0.44141-0.60938 0.25391-0.9375l-5.6836-9.8438zm-22.93-35.027h12.23c0.61328 0 1.1133-0.49609 1.1133-1.1094 0-0.61328-0.5-1.1094-1.1133-1.1094h-12.23c-0.61328 0-1.1094 0.49609-1.1094 1.1094 0 0.61328 0.49609 1.1094 1.1094 1.1094z" fill-rule="evenodd"/>
</svg>